<svg id="icons" enable-background="new 0 0 64 64" height="512" viewBox="0 0 64 64" width="512" xmlns="http://www.w3.org/2000/svg"><g><g><path d="m61 44h-42c-.553 0-1-.447-1-1v-42c0-.553.447-1 1-1h42c.553 0 1 .447 1 1v42c0 .553-.447 1-1 1zm-41-2h40v-40h-40z"/></g><g><path d="m61 48h-42c-.553 0-1-.447-1-1v-42c0-.553.447-1 1-1s1 .447 1 1v41h40v-41c0-.553.447-1 1-1s1 .447 1 1v42c0 .553-.447 1-1 1z"/></g><g><path d="m52.992 52.008h-42c-.553 0-1-.447-1-1v-42c0-.553.447-1 1-1s1 .447 1 1v41h41c.553 0 1 .447 1 1s-.447 1-1 1z"/></g><g><path d="m52.992 56.008h-42c-.553 0-1-.447-1-1v-42c0-.553.447-1 1-1s1 .447 1 1v41h41c.553 0 1 .447 1 1s-.447 1-1 1z"/></g><g><path d="m45 60h-42c-.553 0-1-.447-1-1v-42c0-.553.447-1 1-1s1 .447 1 1v41h41c.553 0 1 .447 1 1s-.447 1-1 1z"/></g><g><path d="m45 64h-42c-.553 0-1-.447-1-1v-42c0-.553.447-1 1-1s1 .447 1 1v41h41c.553 0 1 .447 1 1s-.447 1-1 1z"/></g><g><path d="m11 18h-8c-.553 0-1-.447-1-1s.447-1 1-1h8c.553 0 1 .447 1 1s-.447 1-1 1z"/></g><g><path d="m19 10.008h-8.008c-.553 0-1-.447-1-1s.447-1 1-1h8.008c.553 0 1 .447 1 1s-.447 1-1 1z"/></g><g><path d="m52.992 56.008c-.553 0-1-.447-1-1v-8.008c0-.553.447-1 1-1s1 .447 1 1v8.008c0 .553-.447 1-1 1z"/></g><g><path d="m45 64c-.553 0-1-.447-1-1v-7.992c0-.553.447-1 1-1s1 .447 1 1v7.992c0 .553-.447 1-1 1z"/></g></g></svg>